<svg width="192" height="192" viewBox="0 0 192 192" fill="none" xmlns="http://www.w3.org/2000/svg">
<rect y="96.0001" width="135.765" height="135.765" rx="20" transform="rotate(-45 0 96.0001)" fill="#3C2D7C"/>
<g clip-path="url(#clip0_88_108)">
<path d="M75.2281 73.2934C71.1552 71.5624 69.4242 66.5222 71.8679 62.8565C76.8064 55.5252 85.0541 50.1795 95.9492 50.1795C107.913 50.1795 116.11 55.6271 120.285 62.4492C123.849 68.3041 125.936 79.2501 120.438 87.3959C114.328 96.4073 108.473 99.1565 105.317 104.96C104.553 106.335 104.095 107.455 103.79 109.746C103.331 113.463 100.277 116.365 96.5092 116.365C92.0799 116.365 88.4651 112.546 88.9743 108.117C89.2797 105.521 89.8907 102.822 91.3162 100.277C95.2364 93.1999 102.771 89.0251 107.15 82.763C111.783 76.1954 109.186 63.9257 96.051 63.9257C90.0943 63.9257 86.225 67.0313 83.8322 70.7478C82.0503 73.6498 78.3337 74.5662 75.2281 73.2934ZM106.182 136.729C106.182 142.33 101.6 146.912 96.0001 146.912C90.3998 146.912 85.8177 142.33 85.8177 136.729C85.8177 131.129 90.3998 126.547 96.0001 126.547C101.6 126.547 106.182 131.129 106.182 136.729Z" fill="#E4FCF6"/>
</g>
<defs>
<clipPath id="clip0_88_108">
<rect width="122.188" height="122.188" fill="white" transform="translate(34.906 34.906)"/>
</clipPath>
</defs>
</svg>
