<svg width="102" height="23" viewBox="0 0 102 23" fill="#3C2D7C" xmlns="http://www.w3.org/2000/svg">
<path d="M25.8203 1.10938L25.4805 2.1875C24.8867 2.1875 24.4297 2.25391 24.1094 2.38672C23.7891 2.51172 23.5508 2.72266 23.3945 3.01953C23.2461 3.30859 23.0781 3.80078 22.8906 4.49609L20.5117 13.7656C20.3867 14.2578 20.3242 14.6172 20.3242 14.8438C20.3242 15.2656 20.4922 15.5508 20.8281 15.6992C21.1719 15.8477 21.6602 15.9219 22.293 15.9219L21.9531 17H14.5352L14.875 15.9219C15.4531 15.9219 15.8906 15.8789 16.1875 15.793C16.4922 15.6992 16.7188 15.5352 16.8672 15.3008C17.0156 15.0664 17.1602 14.6797 17.3008 14.1406L20.0781 3.17188L10.6914 17H9.17969L8.30078 3.19531L4.36328 13.5664C4.13672 14.1523 4.02344 14.543 4.02344 14.7383C4.02344 15.1836 4.19922 15.4766 4.55078 15.6172C4.91016 15.75 5.40625 15.8516 6.03906 15.9219L5.69922 17H0.449219L0.789062 15.9219C1.3125 15.8516 1.78906 15.5508 2.21875 15.0195C2.65625 14.4883 3.01172 13.8672 3.28516 13.1562L6.76562 4.0625C6.85938 3.8125 6.90625 3.57812 6.90625 3.35938C6.90625 2.98438 6.76562 2.69531 6.48438 2.49219C6.20312 2.28906 5.80078 2.1875 5.27734 2.1875H5.00781L5.32422 1.10938H11.0547L11.8984 13.2266L20.1719 1.10938H25.8203ZM35.418 11.1875C35.418 11.9688 35.2617 12.7305 34.9492 13.4727C34.6445 14.2148 34.1992 14.8789 33.6133 15.4648C33.0273 16.0508 32.3438 16.5117 31.5625 16.8477C30.7812 17.1758 29.9219 17.3398 28.9844 17.3398C28.0703 17.3398 27.2656 17.1641 26.5703 16.8125C25.875 16.4531 25.3359 15.9531 24.9531 15.3125C24.5703 14.6641 24.3789 13.9297 24.3789 13.1094C24.3789 12.0625 24.668 11.0703 25.2461 10.1328C25.8242 9.19531 26.6094 8.44922 27.6016 7.89453C28.6016 7.33984 29.6797 7.0625 30.8359 7.0625C31.7969 7.0625 32.625 7.25391 33.3203 7.63672C34.0156 8.01172 34.5391 8.51562 34.8906 9.14844C35.2422 9.78125 35.418 10.4609 35.418 11.1875ZM32.6406 10.3789C32.6406 9.65234 32.4844 9.08203 32.1719 8.66797C31.8672 8.25391 31.4141 8.04688 30.8125 8.04688C30.2266 8.04688 29.7031 8.26562 29.2422 8.70312C28.7812 9.14062 28.3984 9.69141 28.0938 10.3555C27.7891 11.0117 27.5586 11.6758 27.4023 12.3477C27.2461 13.0117 27.168 13.5859 27.168 14.0703C27.168 14.7422 27.3203 15.293 27.625 15.7227C27.9297 16.1445 28.3594 16.3555 28.9141 16.3555C29.5312 16.3555 30.0781 16.1406 30.5547 15.7109C31.0312 15.2812 31.4219 14.7383 31.7266 14.082C32.0391 13.418 32.2695 12.7461 32.418 12.0664C32.5664 11.3867 32.6406 10.8242 32.6406 10.3789ZM44.4297 2.33984C44.4297 2.76172 44.2773 3.125 43.9727 3.42969C43.6758 3.72656 43.3242 3.875 42.918 3.875C42.5117 3.875 42.1523 3.72656 41.8398 3.42969C41.5352 3.125 41.3828 2.76172 41.3828 2.33984C41.3828 1.92578 41.5312 1.57031 41.8281 1.27344C42.125 0.976563 42.4883 0.828125 42.918 0.828125C43.1836 0.828125 43.4336 0.898438 43.668 1.03906C43.9023 1.17187 44.0859 1.35156 44.2188 1.57812C44.3594 1.80469 44.4297 2.05859 44.4297 2.33984ZM43.0117 8.50391C43.0117 8.79297 42.9219 9.19922 42.7422 9.72266L40.7852 16.1797C40.5117 17.0859 40.2109 17.9219 39.8828 18.6875C39.5625 19.4609 39.1758 20.1641 38.7227 20.7969C38.2695 21.4375 37.7227 21.9453 37.082 22.3203C36.4492 22.6953 35.707 22.8828 34.8555 22.8828C34.1289 22.8828 33.5195 22.707 33.0273 22.3555C32.5352 22.0117 32.2891 21.5703 32.2891 21.0312C32.2891 20.625 32.418 20.293 32.6758 20.0352C32.9258 19.7852 33.2422 19.6602 33.625 19.6602C34.1406 19.6602 34.4766 19.8164 34.6328 20.1289C34.7812 20.4492 34.8555 20.7734 34.8555 21.1016C34.8555 21.6016 35.0312 21.8516 35.3828 21.8516C35.7891 21.8516 36.1094 21.6328 36.3438 21.1953C36.5781 20.7656 36.832 20.0859 37.1055 19.1562L39.8711 10.0391C40.0586 9.35938 40.1523 8.98438 40.1523 8.91406C40.1523 8.6875 40.043 8.57422 39.8242 8.57422C39.3164 8.57422 38.7695 9.14453 38.1836 10.2852H37.1055C37.6602 9.15234 38.3008 8.33203 39.0273 7.82422C39.7539 7.31641 40.4883 7.0625 41.2305 7.0625C41.8008 7.0625 42.2383 7.20703 42.543 7.49609C42.8555 7.78516 43.0117 8.12109 43.0117 8.50391ZM51.8359 2.33984C51.8359 2.76172 51.6836 3.125 51.3789 3.42969C51.082 3.72656 50.7305 3.875 50.3242 3.875C49.8867 3.875 49.5195 3.72656 49.2227 3.42969C48.9336 3.125 48.7891 2.76172 48.7891 2.33984C48.7891 1.93359 48.9336 1.58203 49.2227 1.28516C49.5195 0.980469 49.8867 0.828125 50.3242 0.828125C50.6055 0.828125 50.8594 0.898438 51.0859 1.03906C51.3203 1.17187 51.5039 1.35156 51.6367 1.57812C51.7695 1.79688 51.8359 2.05078 51.8359 2.33984ZM50.9688 14.1875C50.6641 14.8672 50.1875 15.5625 49.5391 16.2734C48.8906 16.9844 48.0781 17.3398 47.1016 17.3398C46.4453 17.3398 45.9531 17.1797 45.625 16.8594C45.2969 16.5312 45.1328 16.1445 45.1328 15.6992C45.1328 15.2461 45.2773 14.6172 45.5664 13.8125L47.0781 9.67578C47.2266 9.30078 47.3008 9.04688 47.3008 8.91406C47.3008 8.82812 47.2656 8.75 47.1953 8.67969C47.125 8.60938 47.0469 8.57422 46.9609 8.57422C46.6953 8.57422 46.4023 8.78125 46.082 9.19531C45.7695 9.60938 45.5352 9.98047 45.3789 10.3086H44.3477C44.8086 9.27734 45.4062 8.48047 46.1406 7.91797C46.8828 7.34766 47.6211 7.0625 48.3555 7.0625C48.8711 7.0625 49.2969 7.19141 49.6328 7.44922C49.9766 7.69922 50.1484 8.03516 50.1484 8.45703C50.1484 8.90234 50.0625 9.35156 49.8906 9.80469L48.0625 14.7148C47.9375 15.0508 47.875 15.3242 47.875 15.5352C47.875 15.6289 47.9102 15.7227 47.9805 15.8164C48.0586 15.9023 48.1406 15.9453 48.2266 15.9453C48.4609 15.9453 48.7031 15.8203 48.9531 15.5703C49.2031 15.3203 49.5156 14.8594 49.8906 14.1875H50.9688ZM63.6484 10.4727C63.6484 11.293 63.4648 12.1055 63.0977 12.9102C62.7383 13.7148 62.2227 14.457 61.5508 15.1367C60.8867 15.8164 60.125 16.3555 59.2656 16.7539C58.4141 17.1445 57.5156 17.3398 56.5703 17.3398C55.3047 17.3398 54.3242 17.0234 53.6289 16.3906C52.9336 15.75 52.5859 15 52.5859 14.1406C52.5859 13.6094 52.7305 12.8594 53.0195 11.8906L55.5859 3.51172C55.6797 3.16797 55.7266 2.94531 55.7266 2.84375C55.7266 2.57812 55.6016 2.40234 55.3516 2.31641C55.1094 2.23047 54.7812 2.1875 54.3672 2.1875H54.0273L54.3672 1.10938C56.2266 1.10938 57.5703 1.01562 58.3984 0.828125H59.1836L56.7578 8.71484C56.8672 8.62891 57.0586 8.47266 57.332 8.24609C57.6055 8.01953 57.8633 7.83203 58.1055 7.68359C58.3477 7.53516 58.6797 7.39453 59.1016 7.26172C59.5312 7.12891 59.9922 7.0625 60.4844 7.0625C61.0547 7.0625 61.5781 7.19141 62.0547 7.44922C62.5391 7.70703 62.9258 8.09375 63.2148 8.60938C63.5039 9.11719 63.6484 9.73828 63.6484 10.4727ZM60.7656 10.5195C60.7656 9.94922 60.6328 9.48438 60.3672 9.125C60.1016 8.75781 59.707 8.57422 59.1836 8.57422C57.8945 8.57422 56.832 9.52734 55.9961 11.4336C55.7227 12.0742 55.5078 12.7188 55.3516 13.3672C55.2031 14.0156 55.1289 14.4648 55.1289 14.7148C55.1289 15.1836 55.2695 15.5742 55.5508 15.8867C55.8398 16.1992 56.2422 16.3555 56.7578 16.3555C57.6094 16.3555 58.3359 16.0195 58.9375 15.3477C59.5469 14.668 60.0039 13.8633 60.3086 12.9336C60.6133 12.0039 60.7656 11.1992 60.7656 10.5195ZM76.9258 14.1875C76.6992 14.6484 76.4453 15.0703 76.1641 15.4531C75.8828 15.8359 75.5703 16.1719 75.2266 16.4609C74.8828 16.75 74.5352 16.9688 74.1836 17.1172C73.8398 17.2656 73.4805 17.3398 73.1055 17.3398C72.2852 17.3398 71.7578 17.0938 71.5234 16.6016C71.2969 16.1016 71.1836 15.5078 71.1836 14.8203C70.5586 15.5625 69.9414 16.168 69.332 16.6367C68.7227 17.1055 68.0273 17.3398 67.2461 17.3398C66.7852 17.3398 66.4023 17.2148 66.0977 16.9648C65.793 16.707 65.5664 16.3633 65.418 15.9336C65.2773 15.5039 65.207 15.043 65.207 14.5508C65.207 13.4961 65.4766 12.3828 66.0156 11.2109C66.5547 10.0391 67.2852 9.05469 68.207 8.25781C69.1367 7.46094 70.1367 7.0625 71.207 7.0625C71.6992 7.0625 72.0859 7.16016 72.3672 7.35547C72.6484 7.55078 72.8398 7.76953 72.9414 8.01172C73.0508 8.25391 73.1445 8.52344 73.2227 8.82031L73.6562 7.35547H76.2461L74.0664 14.5039C73.9102 15.0195 73.832 15.332 73.832 15.4414C73.832 15.543 73.8633 15.6289 73.9258 15.6992C73.9961 15.7695 74.0742 15.8047 74.1602 15.8047C74.668 15.8047 75.2109 15.2656 75.7891 14.1875H76.9258ZM72.5547 9.51172C72.5547 9.12891 72.4805 8.80078 72.332 8.52734C72.1914 8.25391 71.9297 8.11719 71.5469 8.11719C70.9609 8.11719 70.3906 8.45703 69.8359 9.13672C69.2891 9.80859 68.8438 10.625 68.5 11.5859C68.1641 12.5391 67.9961 13.3438 67.9961 14C67.9961 14.9453 68.293 15.418 68.8867 15.418C69.3008 15.418 69.7227 15.2305 70.1523 14.8555C70.5898 14.4727 70.9922 13.9648 71.3594 13.332C71.7422 12.6758 72.0352 12.0117 72.2383 11.3398C72.4492 10.668 72.5547 10.0586 72.5547 9.51172ZM90.6133 8.38672C90.6133 8.69922 90.4883 8.96875 90.2383 9.19531C89.9961 9.42188 89.7109 9.53516 89.3828 9.53516C89.0078 9.53516 88.5859 9.40625 88.1172 9.14844C87.6953 8.94531 87.3398 8.84375 87.0508 8.84375C86.5664 8.84375 86.0469 9.01562 85.4922 9.35938C84.9453 9.70312 84.2812 10.2422 83.5 10.9766C84.2031 10.9766 84.8281 11.1211 85.375 11.4102C85.9375 11.7148 86.2969 12.1094 86.4531 12.5938C86.6172 13.0781 86.7227 13.7305 86.7695 14.5508C86.8008 15.0039 86.8438 15.3242 86.8984 15.5117C86.9609 15.6914 87.1094 15.7812 87.3438 15.7812C87.6875 15.7812 88.0234 15.5898 88.3516 15.207C88.6797 14.8164 88.9375 14.4062 89.125 13.9766H90.2266C89.9141 14.8047 89.4219 15.543 88.75 16.1914C88.0859 16.8398 87.25 17.1641 86.2422 17.1641C85.4531 17.1641 84.8789 16.9688 84.5195 16.5781C84.1602 16.1797 83.9805 15.7344 83.9805 15.2422C83.9805 15.1094 84.0039 14.8164 84.0508 14.3633C84.1055 13.9102 84.1328 13.5586 84.1328 13.3086C84.1328 12.332 83.6133 11.8438 82.5742 11.8438L81.5312 12.8281L80.2656 17H77.4766L81.4375 4.03906C81.6484 3.29688 81.7539 2.90625 81.7539 2.86719C81.7539 2.55469 81.6328 2.36328 81.3906 2.29297C81.1562 2.22266 80.7344 2.1875 80.125 2.1875L80.4297 1.10938C82.2578 1.10938 83.5859 1.01562 84.4141 0.828125H85.2109L82.0352 11.1172C83.1914 10.0547 84.0391 9.29297 84.5781 8.83203C85.1172 8.36328 85.7344 7.95312 86.4297 7.60156C87.125 7.24219 87.8555 7.0625 88.6211 7.0625C89.2383 7.0625 89.7227 7.18359 90.0742 7.42578C90.4336 7.66797 90.6133 7.98828 90.6133 8.38672ZM101.711 9.00781C101.711 9.32812 101.613 9.69922 101.418 10.1211C101.223 10.5352 100.863 10.9766 100.34 11.4453C99.8242 11.9141 99.082 12.3281 98.1133 12.6875C97.1523 13.0469 95.9414 13.293 94.4805 13.4258L94.1992 13.4492C94.1367 13.7617 94.1055 14.0508 94.1055 14.3164C94.1055 14.8945 94.2422 15.3125 94.5156 15.5703C94.7969 15.8203 95.2031 15.9453 95.7344 15.9453C96.9062 15.9453 98.0273 15.3125 99.0977 14.0469H100.34C99.8555 14.7891 99.1211 15.5234 98.1367 16.25C97.1523 16.9766 95.9844 17.3398 94.6328 17.3398C93.6953 17.3398 92.8906 17.0898 92.2188 16.5898C91.5547 16.082 91.2227 15.3398 91.2227 14.3633C91.2227 13.168 91.5547 12.0078 92.2188 10.8828C92.8828 9.75 93.7891 8.83203 94.9375 8.12891C96.0859 7.41797 97.3359 7.0625 98.6875 7.0625C99.7734 7.0625 100.547 7.24609 101.008 7.61328C101.477 7.98047 101.711 8.44531 101.711 9.00781ZM99.2383 8.96094C99.2383 8.70312 99.1484 8.46875 98.9688 8.25781C98.7891 8.03906 98.543 7.92969 98.2305 7.92969C97.6836 7.92969 97.1797 8.12109 96.7188 8.50391C96.2656 8.87891 95.8828 9.32422 95.5703 9.83984C95.2578 10.3555 95 10.8789 94.7969 11.4102C94.6016 11.9414 94.4805 12.2695 94.4336 12.3945C96.0195 12.1289 97.2148 11.6797 98.0195 11.0469C98.832 10.4141 99.2383 9.71875 99.2383 8.96094Z" />
</svg>
