<svg width="24" height="24" viewBox="0 0 24 24" fill="#000" xmlns="http://www.w3.org/2000/svg">
<path d="M12 22C9.32875 22 6.8175 20.957 4.92875 19.0628C3.04 17.1687 2 14.6502 2 11.9713C2 10.0746 2.53063 8.22746 3.535 6.62976C4.51188 5.07657 5.89187 3.82173 7.52625 3L8.36625 4.68106C7.0375 5.3486 5.915 6.36902 5.12125 7.63201C4.30562 8.92884 3.875 10.4288 3.875 11.9707C3.875 16.4635 7.52 20.119 12 20.119C16.48 20.119 20.125 16.4635 20.125 11.9707C20.125 10.4294 19.6937 8.92884 18.8787 7.63201C18.0844 6.36902 16.9625 5.3486 15.6337 4.68106L16.4738 3C18.1081 3.8211 19.4888 5.07657 20.465 6.62976C21.4694 8.22746 22 10.074 22 11.9713C22 14.6502 20.96 17.1687 19.0712 19.0628C17.1825 20.957 14.6713 22 12 22Z" />
</svg>
